# xmcd
#
# Track frame offsets:
#   150
#   22404
#   42677
#   64265
#   83680
#   101810
#   123734
#   144362
#   163529
#   184151
#
# Disc length: 2709 seconds
#
# Revision: 0
# Processed by: cddbd v1.5.1PL2 Copyright (c) Steve Scherf et al.
# Submitted via: GXTranscoder 2.0.1939
#
DISCID=930a930a
DTITLE=Nicu Paleru&Alina - Viata de noapte
DYEAR=1900
DGENRE=Country
TTITLE0=Zile insorite
TTITLE1=Viata de noapte
TTITLE2=Nu renunt la iubirea ta
TTITLE3=Domnisoara, domnisoara
TTITLE4=De la viata stiu ce vreau
TTITLE5=Dai sau nu dai
TTITLE6=Vad in ochii tai
TTITLE7=Zici ca tine, faci ca mine
TTITLE8=Sunt barbat pretentios
TTITLE9=Fite, fite
EXTD=
EXTT0=
EXTT1=
EXTT2=
EXTT3=
EXTT4=
EXTT5=
EXTT6=
EXTT7=
EXTT8=
EXTT9=
PLAYORDER=
